<svg version="1.2" baseProfile="tiny-ps" xmlns="http://www.w3.org/2000/svg" viewBox="0 0 327 284" width="327" height="284">
	<title>imprint-logo</title>
	<style>
		tspan { white-space:pre }
		.shp0 { opacity: 0.996;fill: #080808 } 
	</style>
	<path id="Path 0" class="shp0" d="M216.75 6.7L210 7C199.15 27.54 194.52 36.2 192.7 39.5C190.89 42.8 187 50 184.06 55.5C181.12 61 177.14 68.42 175.22 72C173.3 75.58 170.95 79.85 170 81.5C169.05 83.15 166.12 88.55 163.49 93.5C160.86 98.45 157.26 105.2 155.48 108.5C153.7 111.8 149.2 120.13 145.49 127C141.78 133.88 138.51 139.72 138.23 140C137.95 140.28 137.57 140.05 137.38 139.5C137.2 138.95 133.5 132.88 129.18 126C124.85 119.13 115.99 104.95 109.48 94.5C102.98 84.05 94.75 70.78 91.2 65C87.65 59.22 83.23 52.14 81.37 49.25C79.52 46.36 78 43.77 78 43.5C78 43.23 89.25 43 103 43C126.52 43 127.94 43.1 127.01 44.75C126.46 45.71 123.97 51 121.48 56.5C118.99 62 116.96 66.61 116.97 66.75C116.99 66.89 126.79 67 138.75 67L160.5 67C170.47 49.56 177.32 36.85 182.16 27.5C187 18.15 190.97 9.71 190.98 8.75C191 7.1 185.94 7 98.5 7C37.5 7 6 7.34 6 8C6 8.55 13.27 20.36 22.15 34.25C31.04 48.14 44.6 69.4 52.3 81.5C60 93.6 71.7 112.05 78.3 122.5C84.91 132.95 100.97 158.6 113.99 179.5C127.02 200.4 138.2 218.51 138.84 219.75C139.48 220.99 140.34 222.02 140.75 222.04C141.16 222.06 143.37 219.47 145.65 216.29C147.93 213.1 152.14 206.45 155.01 201.5C157.89 196.55 163.48 186.65 167.45 179.5C171.41 172.35 177.04 162 179.96 156.5C182.88 151 186.04 145.15 187 143.5C187.95 141.85 191.55 135.1 195 128.5C198.45 121.9 203.52 112.22 206.26 107C209.01 101.78 212.94 94.35 215 90.5C217.06 86.65 224.26 72.7 231.01 59.5C237.76 46.3 246.6 29.09 250.64 21.25C254.69 13.41 258 6.78 258 6.5C258 6.22 250.24 6.09 240.75 6.2C231.26 6.3 220.46 6.53 216.75 6.7ZM269.52 9.1C268.51 10.97 266.8 14.07 265.72 16C264.65 17.93 261.91 23.1 259.64 27.5C257.37 31.9 255.4 35.84 255.26 36.25C255.12 36.66 265.83 36.89 279.06 36.75L303.12 36.5C308.95 25.65 312.52 19.01 314.82 14.75L319 7C303.89 6.99 293.17 6.7 285.43 6.35L271.36 5.7L269.52 9.1ZM249.65 50.25C248.88 51.49 242.74 62.85 236 75.5C229.25 88.15 222.51 100.75 221.01 103.5C219.52 106.25 216.48 111.88 214.26 116C212.04 120.13 202.25 138.35 192.5 156.5C182.75 174.65 173.31 192.2 171.53 195.5C169.74 198.8 164.32 208.93 159.47 218L150.65 234.5C168.36 269.1 173.95 279.16 174.5 279.17C175.05 279.19 176.43 277.47 177.57 275.35C178.71 273.23 184.96 261.38 191.45 249C197.94 236.63 205.16 222.9 207.5 218.5C209.84 214.1 219.28 196.1 228.49 178.5C237.7 160.9 247.94 141.32 251.25 135C254.56 128.68 258.05 122.15 259 120.5C259.95 118.85 264.01 111.2 268.02 103.5C272.02 95.8 277.19 85.9 279.5 81.5C281.81 77.1 286.46 68.33 289.82 62C293.19 55.67 295.96 49.94 295.97 49.25C295.99 48.29 290.85 48 273.52 48C251.29 48 251.02 48.02 249.65 50.25Z" />
</svg>