<svg version="1.2" baseProfile="tiny-ps" xmlns="http://www.w3.org/2000/svg" viewBox="0 0 327 284" width="327" height="284">
	<title>imprint-logo</title>
	<style>
		tspan { white-space:pre }
		.shp0 { fill: #ffffff } 
	</style>
	<path id="Path 0" class="shp0" d="M267.82 11.13C265.85 14.63 262.15 21.66 259.61 26.75C257.08 31.84 255 36.23 255 36.5C255 36.77 265.91 36.99 279.25 36.97L303.5 36.95C315.51 14.51 319 7.55 319 7C319 6.37 312.08 6 300.25 5.99C289.94 5.99 279.23 5.71 276.46 5.37L271.42 4.76L267.82 11.13ZM205.64 14.25C203.19 18.79 193.91 36 185.01 52.5C176.11 69 162 95.19 153.66 110.69C142.22 131.97 138.22 138.6 137.37 137.69C136.75 137.04 124.2 117.15 109.48 93.5C94.76 69.85 81.88 49.04 80.86 47.25L79 44L127 44C119.25 60.28 117 65.45 117 66C117 66.64 124.89 66.91 139.17 66.75L161.35 66.5C173.6 44.8 180.52 31.75 184.63 23.5C191.3 10.14 191.91 8.43 190.31 7.82C189.31 7.45 147.44 7.11 97.25 7.07C37.04 7.02 6 7.34 6 8C6 8.55 6.99 10.69 8.21 12.75C9.43 14.81 26.67 42.15 46.54 73.5C66.4 104.85 91.64 144.9 102.63 162.5C113.62 180.1 126.03 200.13 130.21 207C134.39 213.88 138.58 220.18 139.53 221C141.07 222.36 141.47 222.21 143.68 219.5C145.03 217.85 147.6 214.25 149.39 211.5C151.19 208.75 156.27 200.2 160.68 192.5C165.09 184.8 173.2 170.18 178.71 160C184.21 149.82 195.47 128.68 203.73 113C211.98 97.32 225.71 71 234.24 54.5C242.78 38 251.84 20.34 254.38 15.25L259 6L210.08 6L205.64 14.25ZM249.78 49.75C248.95 50.71 230.25 85.02 208.23 126C186.21 166.98 164.13 208.15 159.16 217.5L150.13 234.5C165.03 263.18 170.56 273.52 172.04 276L174.72 280.5C177.81 275.85 190.76 251.55 205.48 223.5C220.2 195.45 239.48 158.78 248.32 142C257.15 125.22 271.75 97.56 280.75 80.52C292.91 57.5 296.78 49.35 295.81 48.79C295.09 48.37 284.78 48.02 272.9 48.02C253.56 48 251.14 48.18 249.78 49.75Z" />
</svg>